<?xml version="1.0" standalone="no"?>
<svg xmlns:xlink="http://www.w3.org/1999/xlink" id="wave" style="transform:rotate(0deg); transition: 0.3s" viewBox="0 0 1440 490" version="1.1" xmlns="http://www.w3.org/2000/svg"><defs><linearGradient id="sw-gradient-0" x1="0" x2="0" y1="1" y2="0"><stop stop-color="rgba(21, 54, 82, 1)" offset="0%"/><stop stop-color="rgba(21, 54, 82, 1)" offset="100%"/></linearGradient></defs><path style="transform:translate(0, 0px); opacity:1" fill="url(#sw-gradient-0)" d="M0,147L60,130.7C120,114,240,82,360,98C480,114,600,180,720,179.7C840,180,960,114,1080,73.5C1200,33,1320,16,1440,73.5C1560,131,1680,261,1800,285.8C1920,310,2040,229,2160,179.7C2280,131,2400,114,2520,155.2C2640,196,2760,294,2880,302.2C3000,310,3120,229,3240,236.8C3360,245,3480,343,3600,375.7C3720,408,3840,376,3960,367.5C4080,359,4200,376,4320,343C4440,310,4560,229,4680,196C4800,163,4920,180,5040,155.2C5160,131,5280,65,5400,98C5520,131,5640,261,5760,318.5C5880,376,6000,359,6120,343C6240,327,6360,310,6480,294C6600,278,6720,261,6840,269.5C6960,278,7080,310,7200,343C7320,376,7440,408,7560,392C7680,376,7800,310,7920,269.5C8040,229,8160,212,8280,171.5C8400,131,8520,65,8580,32.7L8640,0L8640,490L8580,490C8520,490,8400,490,8280,490C8160,490,8040,490,7920,490C7800,490,7680,490,7560,490C7440,490,7320,490,7200,490C7080,490,6960,490,6840,490C6720,490,6600,490,6480,490C6360,490,6240,490,6120,490C6000,490,5880,490,5760,490C5640,490,5520,490,5400,490C5280,490,5160,490,5040,490C4920,490,4800,490,4680,490C4560,490,4440,490,4320,490C4200,490,4080,490,3960,490C3840,490,3720,490,3600,490C3480,490,3360,490,3240,490C3120,490,3000,490,2880,490C2760,490,2640,490,2520,490C2400,490,2280,490,2160,490C2040,490,1920,490,1800,490C1680,490,1560,490,1440,490C1320,490,1200,490,1080,490C960,490,840,490,720,490C600,490,480,490,360,490C240,490,120,490,60,490L0,490Z"/></svg>